<svg width="43" height="43" viewBox="0 0 43 43" fill="none" xmlns="http://www.w3.org/2000/svg">
<g id="emojione-monotone:newspaper">
<path id="Vector" d="M38.4628 16.2742C39.1165 14.5085 39.3053 12.8248 38.8356 11.3137C38.6189 11.3334 38.3953 11.3433 38.1651 11.3433C31.2838 11.3433 19.1215 2.69153 18.201 1.34375C14.4083 6.86858 6.45866 11.1162 2.86547 15.8798C1.41154 17.8074 0.684569 19.2418 2.13112 21.4469L17.2812 40.9132C17.9645 41.8383 19.3036 41.9136 20.257 41.0603C20.257 41.0603 32.6813 25.1174 41.6568 20.1845C40.9823 18.8669 39.8596 17.5521 38.4628 16.2742ZM17.0172 36.7878L16.954 36.8315L16.8969 36.8812C16.6655 37.0891 16.4598 37.3239 16.2842 37.5807L3.15707 20.7146C2.21174 19.2519 2.47982 18.4819 3.87127 16.6383C5.44951 14.5468 7.97173 12.5164 10.6424 10.367C13.4186 8.13238 16.2781 5.83187 18.3784 3.21425C21.8453 6.06703 31.5424 12.3659 37.8171 12.5963C38.5696 19.9849 23.2495 32.4408 17.0172 36.7878Z" fill="#FFC86E"/>
<path id="Vector_2" d="M13.4329 9.51241L30.3675 22.7819L30.9708 22.2418L13.8736 9.11735L13.4329 9.51241ZM18.9516 16.5758L12.0206 10.7762C12.0206 10.7762 9.60855 12.3161 6.68724 15.6937L12.8362 22.0509L18.9516 16.5758ZM3.7666 18.8528L16.8467 34.8844L19.2621 32.723L5.31662 16.7787C5.31662 16.7787 4.1012 17.4365 3.7666 18.8528ZM18.4229 19.7719L26.0211 26.6721L28.4352 24.5107L20.5238 17.8914L18.4229 19.7719ZM14.221 23.5338L21.193 30.9943L23.6064 28.8335L16.3219 21.6532L14.221 23.5338ZM18.7165 7.22669L17.6919 10.1037L18.3342 10.5713L21.5961 7.65065L20.9579 7.24887L18.7104 9.26113L19.7041 6.45673L19.0376 6.03613L15.9289 8.81904L16.4859 9.22418L18.7165 7.22669ZM21.5081 12.8859L22.1303 12.3276L20.2322 10.9784L21.0929 10.2085L22.7786 11.3628L23.3773 10.8259L21.6727 9.68777L22.3836 9.05218L24.2709 10.273L24.8836 9.7254L22.2741 8.07796L18.9698 11.0362L21.5081 12.8859ZM23.5298 14.3586L26.1091 12.7965L26.9537 12.2617L26.3933 12.986L24.7338 15.2375L25.5354 15.8213L30.4992 13.2689L29.5572 12.6743L26.8354 14.2317L26.1407 14.6523L26.607 14.0388L28.2202 11.8304L27.3145 11.2593L24.7983 12.8187L24.1298 13.2413L24.59 12.6561L26.1138 10.5014L25.2646 9.96526L22.8049 13.8306L23.5298 14.3586ZM32.8595 14.5831C32.2487 14.1994 31.6783 14.016 31.1448 14.0267C30.6163 14.0384 30.1811 14.1974 29.8394 14.5038C29.4636 14.8397 29.3375 15.1884 29.4611 15.5499C29.5328 15.7662 29.7655 16.0816 30.1592 16.4959L30.567 16.9245C30.8102 17.1776 30.9663 17.3837 31.0353 17.5427C31.1025 17.7039 31.0698 17.8437 30.9372 17.9619C30.7106 18.1635 30.4161 18.2024 30.0537 18.0788C29.8284 17.9938 29.6162 17.8773 29.4235 17.7328C29.0405 17.46 28.8544 17.1973 28.8591 16.944C28.8618 16.8056 28.9375 16.6471 29.0862 16.4683L28.2054 15.8542C27.8076 16.209 27.6583 16.6063 27.7572 17.0461C27.8574 17.4903 28.198 17.9283 28.7892 18.3597C29.3785 18.7917 29.965 19.0228 30.5415 19.0483C31.124 19.0732 31.6037 18.92 31.9733 18.5874C32.3361 18.2631 32.4655 17.9158 32.3616 17.5454C32.2958 17.3082 32.111 17.032 31.8127 16.7176L31.1442 16.0121C30.8902 15.7465 30.7375 15.5611 30.6859 15.4558C30.6053 15.2955 30.6344 15.1535 30.7733 15.0299C30.9242 14.8946 31.118 14.8388 31.3545 14.8626C31.5941 14.8863 31.8445 14.9821 32.1056 15.1501C32.3435 15.3033 32.5094 15.4619 32.6035 15.6258C32.7473 15.8735 32.7081 16.1109 32.4859 16.338L33.4783 16.9917C33.8903 16.5935 34.0196 16.1729 33.8659 15.7299C33.715 15.291 33.3795 14.9087 32.8595 14.5831Z" fill="#FFC86E"/>
</g>
</svg>
