<svg width="59" height="59" viewBox="0 0 59 59" fill="none" xmlns="http://www.w3.org/2000/svg">
<g id="fluent:spatula-spoon-28-regular">
<path id="Vector" d="M41.14 9.53505C40.1391 10.5359 38.9822 12.2469 38.0193 14.2656C37.0563 16.2758 36.3462 18.4525 36.1376 20.3384C35.969 21.885 35.4043 23.6466 34.0136 24.9003L32.1972 26.5439L32.2183 26.5587L34.7469 28.7206L36.2177 27.0897C37.4735 25.7032 39.2309 25.1405 40.7733 24.9678C42.6592 24.7592 44.8359 24.049 46.844 23.0861C48.8605 22.121 50.5694 20.9663 51.5703 19.9675C52.9535 18.5844 53.7305 16.7084 53.7305 14.7523C53.7305 12.7963 52.9535 10.9203 51.5703 9.53715C50.1872 8.154 48.3112 7.37696 46.3551 7.37696C44.3991 7.37696 42.5231 8.1519 41.14 9.53505ZM38.5608 29.2073L37.149 30.7708L50.4662 42.1515L50.5104 42.1937C51.1953 42.8785 51.7386 43.6916 52.1092 44.5864C52.4798 45.4812 52.6706 46.4403 52.6706 47.4088C52.6706 48.3774 52.4798 49.3364 52.1092 50.2313C51.7386 51.1261 51.1953 51.9391 50.5104 52.624C49.8256 53.3089 49.0125 53.8521 48.1177 54.2228C47.2229 54.5934 46.2638 54.7842 45.2952 54.7842C44.3267 54.7842 43.3676 54.5934 42.4728 54.2228C41.578 53.8521 40.7649 53.3089 40.0801 52.624L40.0379 52.5819L29.0555 39.7241L17.1649 52.8769L17.1101 52.9338C16.5243 53.5387 15.8237 54.0204 15.0492 54.3508C14.2747 54.6812 13.442 54.8535 12.5999 54.8577C11.7579 54.8618 10.9236 54.6977 10.1459 54.3749C9.36816 54.0522 8.66276 53.5773 8.07109 52.9782C7.47942 52.3791 7.01341 51.6678 6.70041 50.8862C6.38741 50.1045 6.23372 49.2681 6.24839 48.4262C6.26305 47.5843 6.44576 46.7539 6.78579 45.9835C7.12582 45.2132 7.61632 44.5186 8.22849 43.9405L20.7049 32.6652H15.751C14.2147 32.6651 12.7413 32.055 11.6547 30.9689L3.8056 23.1282C3.26722 22.5901 2.84015 21.9512 2.54877 21.248C2.2574 20.5448 2.10742 19.791 2.10742 19.0298C2.10742 18.2686 2.2574 17.5149 2.54877 16.8117C2.84015 16.1085 3.26722 15.4696 3.8056 14.9314L12.8242 5.91287C13.9109 4.82622 15.3847 4.21575 16.9215 4.21575C18.4583 4.21575 19.9321 4.82622 21.0188 5.91287L28.8574 13.7514C29.3958 14.2895 29.8229 14.9285 30.1143 15.6317C30.4058 16.3349 30.5558 17.0886 30.5558 17.8498V22.9512C30.5558 23.2083 30.5761 23.4612 30.6169 23.7098L31.8959 22.553C32.4965 22.0093 32.8715 21.1117 32.9958 19.9907C33.2529 17.6475 34.1042 15.1211 35.1662 12.898C36.2282 10.6834 37.5683 8.6353 38.9043 7.29937C39.8827 6.32105 41.0443 5.54503 42.3227 5.01561C43.601 4.4862 44.9712 4.21377 46.3548 4.21387C47.7385 4.21397 49.1086 4.48659 50.3869 5.01618C51.6651 5.54578 52.8266 6.32196 53.8049 7.30042C54.7833 8.27888 55.5593 9.44046 56.0887 10.7188C56.6181 11.9972 56.8905 13.3673 56.8904 14.751C56.8903 16.1346 56.6177 17.5047 56.0881 18.783C55.5585 20.0613 54.7823 21.2228 53.8039 22.2011C52.4701 23.5349 50.424 24.875 48.2094 25.9349C45.9885 26.999 43.462 27.8503 41.121 28.1074C40.0021 28.2338 39.1066 28.6068 38.5629 29.2073M24.4451 34.3277C24.3213 34.1796 24.1876 34.0402 24.0447 33.9105L10.3799 46.252C9.78694 46.845 9.45383 47.6491 9.45383 48.4877C9.45383 49.3262 9.78694 50.1304 10.3799 50.7234C10.9728 51.3163 11.777 51.6494 12.6156 51.6494C13.4541 51.6494 14.2583 51.3163 14.8512 50.7234L26.9842 37.2988L24.4451 34.3277ZM18.7832 8.14433C18.5386 7.89968 18.2482 7.7056 17.9286 7.57319C17.609 7.44078 17.2664 7.37263 16.9205 7.37263C16.5745 7.37263 16.2319 7.44078 15.9123 7.57319C15.5927 7.7056 15.3023 7.89968 15.0577 8.14433L6.03917 17.1629C5.79451 17.4075 5.60043 17.6979 5.46802 18.0175C5.33561 18.3371 5.26746 18.6797 5.26746 19.0256C5.26746 19.3716 5.33561 19.7141 5.46802 20.0337C5.60043 20.3533 5.79451 20.6437 6.03917 20.8883L13.8904 28.7311C14.3835 29.2242 15.0535 29.5023 15.751 29.5023H20.8397C21.982 29.502 23.1108 29.7494 24.1483 30.2274C25.1858 30.7054 26.1073 31.4027 26.8493 32.2711L42.3579 50.4284C43.1481 51.2189 44.22 51.6631 45.3377 51.6633C46.4554 51.6635 47.5274 51.2196 48.3179 50.4294C49.1084 49.6392 49.5526 48.5673 49.5528 47.4496C49.553 46.3319 49.1092 45.2599 48.319 44.4694L30.1638 28.9566C29.2958 28.2154 28.5986 27.295 28.1203 26.2587C27.642 25.2224 27.3938 24.0947 27.393 22.9533V17.8477C27.393 17.1482 27.1148 16.4781 26.6217 15.985L18.7832 8.14433ZM17.974 12.5799C17.6744 12.3007 17.2782 12.1487 16.8688 12.156C16.4594 12.1632 16.0687 12.329 15.7792 12.6186C15.4896 12.9081 15.3238 13.2988 15.3165 13.7082C15.3093 14.1176 15.4613 14.5139 15.7405 14.8134L21.0083 20.0813C21.153 20.2366 21.3275 20.3611 21.5213 20.4475C21.7152 20.5339 21.9244 20.5803 22.1366 20.584C22.3488 20.5878 22.5596 20.5488 22.7564 20.4693C22.9532 20.3898 23.1319 20.2715 23.282 20.1214C23.4321 19.9713 23.5504 19.7926 23.6299 19.5958C23.7093 19.399 23.7484 19.1882 23.7446 18.9761C23.7409 18.7639 23.6944 18.5546 23.6081 18.3607C23.5217 18.1669 23.3972 17.9924 23.2419 17.8477L17.974 12.5799ZM10.4726 17.8477C10.7689 17.5518 11.1706 17.3855 11.5894 17.3855C12.0082 17.3855 12.4098 17.5518 12.7062 17.8477L17.974 23.1156C18.1293 23.2603 18.2538 23.4347 18.3402 23.6286C18.4266 23.8224 18.473 24.0317 18.4768 24.2439C18.4805 24.4561 18.4415 24.6669 18.362 24.8637C18.2825 25.0604 18.1642 25.2392 18.0141 25.3893C17.8641 25.5393 17.6853 25.6576 17.4885 25.7371C17.2918 25.8166 17.081 25.8556 16.8688 25.8519C16.6566 25.8482 16.4473 25.8017 16.2535 25.7153C16.0596 25.629 15.8851 25.5044 15.7405 25.3492L10.4726 20.0813C10.1766 19.785 10.0104 19.3833 10.0104 18.9645C10.0104 18.5457 10.1766 18.144 10.4726 17.8477ZM42.143 16.3306C42.143 15.9114 41.9765 15.5095 41.6801 15.2131C41.3837 14.9167 40.9817 14.7502 40.5626 14.7502C40.1435 14.7502 39.7415 14.9167 39.4451 15.2131C39.1487 15.5095 38.9822 15.9114 38.9822 16.3306C38.9822 17.8674 39.5927 19.3413 40.6795 20.428C41.7662 21.5147 43.24 22.1252 44.7769 22.1252C45.196 22.1252 45.598 21.9587 45.8944 21.6623C46.1907 21.366 46.3572 20.964 46.3572 20.5449C46.3572 20.1257 46.1907 19.7238 45.8944 19.4274C45.598 19.131 45.196 18.9645 44.7769 18.9645C43.323 18.9645 42.143 17.7845 42.143 16.3306Z" fill="white"/>
</g>
</svg>
