<svg width="45" height="35" viewBox="0 0 45 35" fill="none" xmlns="http://www.w3.org/2000/svg">
<g id="Group">
<path id="Vector" d="M22.5 7.65625C22.5 7.28329 22.3518 6.9256 22.0881 6.66188C21.8244 6.39816 21.4667 6.25 21.0938 6.25C20.7208 6.25 20.3631 6.39816 20.0994 6.66188C19.8357 6.9256 19.6875 7.28329 19.6875 7.65625V27.3438C19.6875 27.7167 19.8357 28.0744 20.0994 28.3381C20.3631 28.6018 20.7208 28.75 21.0938 28.75C21.4667 28.75 21.8244 28.6018 22.0881 28.3381C22.3518 28.0744 22.5 27.7167 22.5 27.3438V7.65625ZM32.3438 10.1256C36.5119 6.13187 45.8297 14.0406 32.3438 23.125C18.8578 14.0406 28.1756 6.12906 32.3438 10.1256ZM7.03125 9.0625C6.65829 9.0625 6.3006 9.21066 6.03688 9.47438C5.77316 9.7381 5.625 10.0958 5.625 10.4688C5.625 10.8417 5.77316 11.1994 6.03688 11.4631C6.3006 11.7268 6.65829 11.875 7.03125 11.875H15.4688C15.8417 11.875 16.1994 11.7268 16.4631 11.4631C16.7268 11.1994 16.875 10.8417 16.875 10.4688C16.875 10.0958 16.7268 9.7381 16.4631 9.47438C16.1994 9.21066 15.8417 9.0625 15.4688 9.0625H7.03125ZM7.03125 14.6875C6.65829 14.6875 6.3006 14.8357 6.03688 15.0994C5.77316 15.3631 5.625 15.7208 5.625 16.0938C5.625 16.4667 5.77316 16.8244 6.03688 17.0881C6.3006 17.3518 6.65829 17.5 7.03125 17.5H15.4688C15.8417 17.5 16.1994 17.3518 16.4631 17.0881C16.7268 16.8244 16.875 16.4667 16.875 16.0938C16.875 15.7208 16.7268 15.3631 16.4631 15.0994C16.1994 14.8357 15.8417 14.6875 15.4688 14.6875H7.03125ZM7.03125 20.3125C6.65829 20.3125 6.3006 20.4607 6.03688 20.7244C5.77316 20.9881 5.625 21.3458 5.625 21.7188C5.625 22.0917 5.77316 22.4494 6.03688 22.7131C6.3006 22.9768 6.65829 23.125 7.03125 23.125H15.4688C15.8417 23.125 16.1994 22.9768 16.4631 22.7131C16.7268 22.4494 16.875 22.0917 16.875 21.7188C16.875 21.3458 16.7268 20.9881 16.4631 20.7244C16.1994 20.4607 15.8417 20.3125 15.4688 20.3125H7.03125Z" fill="#FFC86E"/>
<path id="Vector_2" fill-rule="evenodd" clip-rule="evenodd" d="M0 6.25C0 4.75816 0.592632 3.32742 1.64752 2.27252C2.70242 1.21763 4.13316 0.625 5.625 0.625H39.375C40.8668 0.625 42.2976 1.21763 43.3525 2.27252C44.4074 3.32742 45 4.75816 45 6.25V28.75C45 30.2418 44.4074 31.6726 43.3525 32.7275C42.2976 33.7824 40.8668 34.375 39.375 34.375H5.625C4.13316 34.375 2.70242 33.7824 1.64752 32.7275C0.592632 31.6726 0 30.2418 0 28.75V6.25ZM5.625 3.4375C4.87908 3.4375 4.16371 3.73382 3.63626 4.26126C3.10882 4.78871 2.8125 5.50408 2.8125 6.25V28.75C2.8125 29.4959 3.10882 30.2113 3.63626 30.7387C4.16371 31.2662 4.87908 31.5625 5.625 31.5625H39.375C40.1209 31.5625 40.8363 31.2662 41.3637 30.7387C41.8912 30.2113 42.1875 29.4959 42.1875 28.75V6.25C42.1875 5.50408 41.8912 4.78871 41.3637 4.26126C40.8363 3.73382 40.1209 3.4375 39.375 3.4375H5.625Z" fill="#FFC86E"/>
</g>
</svg>
