<svg width="33" height="33" viewBox="0 0 33 33" fill="none" xmlns="http://www.w3.org/2000/svg">
<g id="noto:cookie">
<path id="Vector" d="M4.12234 9.21936L3.02406 9.47202C3.02406 9.47202 1.50039 11.8233 1.16781 14.3241C0.95898 15.8941 0.951245 17.9437 1.09562 18.9647C1.24257 19.9856 1.76851 22.159 2.59609 23.6904C3.39273 25.1651 4.16875 25.7451 5.01695 26.2582C5.38046 26.4773 5.70531 27.2276 6.2725 27.5911C6.80359 27.9314 7.50484 27.9984 7.50484 27.9984C7.50484 27.9984 9.44359 31.0432 13.6382 31.5717C18.5598 32.1905 20.9678 29.9681 20.9678 29.9681C20.9678 29.9681 22.9375 29.963 24.7963 29.1663C26.882 28.2717 27.9958 26.4103 27.9958 26.4103C27.9958 26.4103 30.6074 24.1622 31.435 21.4706C32.1002 19.3101 32.1182 15.2032 31.6077 13.2696C31.0973 11.336 30.1098 9.6989 29.3261 8.6496C28.7022 7.81429 21.7361 4.1121 20.8956 3.7821C20.0577 3.45468 12.2537 2.94421 11.9624 3.16335C11.6711 3.38507 4.12234 9.21936 4.12234 9.21936Z" fill="#AC5811"/>
<path id="Vector_2" d="M6.83973 5.09173C5.02215 6.57158 4.08114 7.34501 3.13754 9.19611C2.19395 11.0472 2.49817 13.5042 2.66832 14.4117C2.8359 15.3192 3.14012 17.0697 3.3077 17.9437C3.47528 18.8202 3.92129 20.8982 5.15621 22.1847C6.88614 23.9868 8.45364 24.6081 8.45364 24.6081C8.45364 24.6081 9.72465 26.5778 12.7952 27.7045C16.8325 29.1843 18.6501 27.0316 20.197 26.4592C21.7439 25.8869 23.595 25.8534 25.1779 24.7422C26.7583 23.631 28.5089 22.2852 29.6536 19.4596C30.7982 16.634 30.5611 15.3888 30.5946 14.6824C30.6281 13.976 30.5275 10.578 29.2153 8.49228C27.903 6.40658 26.3252 5.15361 25.7168 4.75658C24.371 3.88259 19.5654 1.79173 18.3562 1.55712C17.1445 1.32251 12.8236 1.68861 11.1091 2.39501C9.39465 3.10142 6.83973 5.09173 6.83973 5.09173Z" fill="url(#paint0_radial_91_4831)"/>
<path id="Vector_3" d="M14.5098 18.4234C14.2236 18.3332 13.922 17.9078 13.8498 16.9977C13.7492 15.7009 14.7057 15.3426 14.7057 15.3426C14.7057 15.3426 15.8453 15.0409 16.6471 14.7548C17.3921 14.4892 17.9284 14.1489 17.9284 14.1489C17.9284 14.1489 18.0006 12.7593 18.4621 12.3494C18.9261 11.9395 19.7434 11.9755 20.6535 12.0812C21.561 12.187 23.0228 12.7928 22.8088 13.3445C22.5948 13.8962 22.3447 14.448 21.4733 14.9481C20.6019 15.4457 19.978 15.9098 19.532 16.3016C19.086 16.6961 18.2687 17.1911 16.9152 17.6912C15.5617 18.1914 14.9223 18.5523 14.5098 18.4234ZM6.84502 6.82445C5.98909 6.64914 4.77995 8.50281 4.55565 9.1164C4.32877 9.73 4.09674 11.2253 4.07096 11.9085C4.03745 12.7567 4.02198 13.5534 4.37776 14.2005C4.65104 14.7006 5.31362 14.9816 5.90917 14.466C6.50471 13.9504 7.53854 12.5376 7.81182 12.3391C8.0851 12.1405 8.88432 11.8776 8.56979 10.5782C8.44088 10.0471 7.13377 8.94883 7.06932 8.79929C7.00745 8.65234 7.32971 6.925 6.84502 6.82445ZM12.8959 4.4964C12.9294 4.99398 13.3367 5.79062 13.7776 6.22117C14.4376 6.86312 17.4643 9.0339 18.2481 8.91015C19.0318 8.7864 19.8852 7.37875 20.1353 6.98687C20.3853 6.595 20.8829 6.04328 21.0789 5.7932C21.2748 5.54312 21.7904 4.97336 21.365 4.40359C20.9371 3.83383 19.8697 3.46 19.1581 3.40586C18.4466 3.35172 17.3406 2.89023 16.397 2.92633C15.4534 2.96242 12.8082 3.2125 12.8959 4.4964ZM25.3534 11.1351C25.4127 11.6765 26.1732 11.7951 26.7791 12.1869C27.3849 12.5788 27.7949 12.9887 28.1507 12.8805C28.5064 12.7748 28.9911 12.205 28.8803 11.2073C28.7385 9.92593 27.9367 8.28625 26.8152 8.34039C26.1371 8.3739 26.2299 9.55211 26.2299 9.55211C26.2299 9.55211 25.3173 10.8154 25.3534 11.1351Z" fill="#FFC86E"/>
<path id="Vector_4" d="M10.6916 7.79353C10.6916 7.79353 8.26042 7.77807 8.30425 8.02041C8.35066 8.26275 8.56206 9.06197 9.19628 9.09291C9.8305 9.12385 10.6478 9.18315 11.0396 9.06197C11.4315 8.9408 12.5195 8.06424 12.5195 7.67236C12.5195 7.28049 12.0812 6.70557 12.0812 6.70557L10.6916 7.79353ZM14.1643 12.2511C14.1643 12.2511 14.136 12.2692 14.0947 12.3027C13.9735 12.4032 13.7415 12.6378 13.8317 12.9008C13.9529 13.2488 14.6619 13.8985 15.358 13.8985C16.0541 13.8985 16.4305 13.2488 16.5517 12.826C16.6728 12.4032 16.611 12.1454 16.611 12.1454L14.1643 12.2511ZM8.74253 14.2311C8.74253 14.2311 8.31972 14.3832 8.33519 14.6539C8.35066 14.9246 8.45636 15.4248 9.00034 15.9533C9.54948 16.487 10.3461 16.6339 11.0706 16.438C11.795 16.2421 12.3235 15.6981 12.2642 14.9736C12.205 14.2492 11.5089 13.6897 11.5089 13.6897L8.74253 14.2311ZM5.61527 18.2349C5.61527 18.2349 5.16152 18.3406 5.20792 18.6423C5.25433 18.9439 5.76737 19.8953 6.58206 19.7896C7.39675 19.6838 8.68323 18.748 8.68323 18.3845C8.68323 18.021 8.03355 17.5388 8.03355 17.5388L5.61527 18.2349ZM11.1737 22.0119C11.1737 22.0119 11.0061 22.9864 12.321 23.3422C14.5124 23.9326 14.7392 22.6023 14.7392 22.6023L11.1737 22.0119ZM19.7821 22.4631C19.7821 22.4631 19.1942 23.0509 19.862 23.5124C20.5297 23.9738 21.2903 24.1311 22.007 24.0512C22.7237 23.9713 23.2135 23.3989 23.2135 23.3989L19.7821 22.4631ZM25.2683 15.9353C25.2683 15.9353 24.1597 16.4947 25.0182 17.4615C25.6705 18.1988 27.1632 18.0493 27.7743 17.6342C28.1739 17.3635 28.2925 16.884 28.1429 16.6417C27.9908 16.3993 25.2683 15.9353 25.2683 15.9353ZM20.9783 9.53119C20.9783 9.53119 20.919 10.7971 22.6257 10.7558C25.0131 10.6965 24.7114 9.21408 24.7114 9.21408L20.9783 9.53119Z" fill="#CF701E"/>
<path id="Vector_5" d="M22.0819 7.94557C22.0819 7.94557 20.963 8.64167 20.8418 8.92784C20.7206 9.21401 20.4628 10.1215 21.7622 10.0622C23.0615 10.0029 24.3609 9.95651 24.7992 9.428C25.2375 8.89948 25.1318 8.41479 24.9513 8.02292C24.7708 7.63104 23.7551 6.14862 22.9481 6.16667C22.4196 6.17698 22.0819 7.94557 22.0819 7.94557Z" fill="#593329"/>
<path id="Vector_6" d="M22.9429 6.16194C22.9429 6.16194 22.2339 6.0717 21.6126 7.17514C20.9938 8.27858 20.834 8.936 20.834 8.936C20.834 8.936 22.0947 8.94116 22.8501 8.85092C23.6055 8.76069 24.1185 8.29147 24.1185 8.29147C24.1185 8.29147 23.5023 6.29858 22.9429 6.16194Z" fill="#925849"/>
<path id="Vector_7" d="M14.3627 11.3152C14.3627 11.3152 13.7439 11.274 13.6975 11.5137C13.6511 11.7561 13.7878 12.3722 13.9992 12.6429C14.2106 12.9136 14.8448 13.5195 15.479 13.3983C16.1132 13.2772 16.4896 12.6558 16.5953 12.4418C16.6907 12.2407 16.7939 12.0242 16.6134 11.7535C16.4303 11.4802 14.3627 11.3152 14.3627 11.3152Z" fill="#593329"/>
<path id="Vector_8" d="M15.2834 10.3485C14.7574 10.2918 13.489 11.2998 13.7159 11.6453C13.9685 12.0243 14.0123 11.7845 14.7084 12.1326C15.2834 12.4187 15.5334 12.6843 15.8944 12.6379C16.2553 12.5915 16.6859 11.9959 16.6111 11.7536C16.5363 11.5112 15.9949 10.4233 15.2834 10.3485Z" fill="#925849"/>
<path id="Vector_9" d="M9.33011 6.26729L8.09261 7.12323C8.09261 7.12323 8.0462 7.70331 8.30401 8.02042C8.56183 8.33753 8.63659 8.53347 9.84573 8.53347C11.0549 8.53347 12.1867 8.36847 12.3981 7.50737C12.6095 6.64628 12.2382 6.09456 12.0114 5.77745C11.7845 5.46034 9.33011 6.26729 9.33011 6.26729Z" fill="#593329"/>
<path id="Vector_10" d="M9.34588 4.92434C9.06744 5.04293 8.41002 5.93754 8.25791 6.32942C8.1058 6.72129 8.07229 7.13895 8.09291 7.1441C8.34299 7.20598 9.8151 7.34262 10.4648 7.23692C11.1145 7.13121 11.643 6.84504 11.8544 6.46606C12.022 6.16442 12.0091 5.76481 12.0091 5.76481C12.0091 5.76481 11.5682 4.97074 10.9624 4.7284C10.3591 4.48606 9.45158 4.87793 9.34588 4.92434Z" fill="#925949"/>
<path id="Vector_11" d="M8.30935 14.2877C8.30935 14.2877 8.20622 14.445 8.40216 14.7466C8.5981 15.0483 8.98224 15.4092 9.55716 15.5768C10.1321 15.7418 10.5394 15.9687 10.9158 15.9248C11.2948 15.8784 12.0347 15.5768 12.0631 14.5352C12.094 13.4937 11.8826 13.009 11.4289 12.5552C10.9751 12.1015 10.6477 12.1788 10.6477 12.1788L8.30935 14.2877Z" fill="#593329"/>
<path id="Vector_12" d="M8.441 13.3237C8.28116 13.5918 8.16257 14.4632 8.3585 14.6592C8.55444 14.8551 9.73265 14.868 10.042 14.8345C10.354 14.801 11.3723 14.3214 11.3878 13.9579C11.4033 13.5944 11.2073 13.1123 11.2073 12.9318C11.2073 12.7513 11.4342 12.3285 10.8155 12.1764C10.1967 12.0243 8.771 12.7642 8.441 13.3237Z" fill="#925849"/>
<path id="Vector_13" d="M6.39869 17.2371C6.39869 17.2371 5.42674 17.4769 5.36486 17.8095C5.30557 18.1421 5.44479 18.4772 5.77736 18.7943C6.10994 19.1114 6.35229 19.444 6.60752 19.4131C6.86533 19.3821 7.54338 18.7789 7.75479 18.5829C7.96619 18.387 8.26783 18.0389 8.23947 17.7528C8.21111 17.4666 8.08736 17.1778 7.81666 16.951C7.54854 16.7241 6.39869 17.2371 6.39869 17.2371Z" fill="#593329"/>
<path id="Vector_14" d="M6.64118 16.3763C6.18743 16.3866 5.83938 16.9357 5.68985 17.1317C5.53774 17.3276 5.28251 17.7968 5.38821 17.8716C5.49391 17.9464 5.9322 17.9928 6.1436 18.1294C6.35501 18.266 6.67212 18.4774 6.91446 18.2815C7.1568 18.0856 7.36821 17.5416 7.48938 17.3611C7.61055 17.1806 7.82196 16.9538 7.82196 16.9538C7.82196 16.9538 7.36563 16.3608 6.64118 16.3763Z" fill="#925849"/>
<path id="Vector_15" d="M12.1866 20.0164C12.0964 20.1221 10.8125 21.1637 10.8125 21.1637C10.8125 21.1637 10.8589 22.0712 11.1451 22.2826C11.4313 22.494 12.3233 22.7956 12.8982 22.9168C13.4731 23.0379 14.4992 23.1746 14.757 23.0689C15.0148 22.9632 15.2855 22.4037 15.301 21.6793C15.3165 20.9548 15.0587 20.4134 14.7725 20.0808C14.4863 19.7483 14.2569 19.6245 14.2569 19.6245L12.1866 20.0164Z" fill="#593329"/>
<path id="Vector_16" d="M13.8937 21.3753C14.0613 21.1871 14.2572 19.6222 14.2572 19.6222C14.2572 19.6222 13.0945 18.7301 12.6098 18.6708C12.1251 18.6115 11.5528 18.6554 11.3852 18.8358C11.2202 19.0163 10.5705 19.666 10.6298 20.0888C10.6891 20.5116 10.8103 21.1613 10.8103 21.1613C10.8103 21.1613 13.5456 21.7697 13.8937 21.3753Z" fill="#925849"/>
<path id="Vector_17" d="M19.5292 22.1202C19.5292 22.1202 19.3823 23.0999 20.4599 23.2856C21.5376 23.4686 22.4322 23.7135 22.8988 23.6156C23.3655 23.5176 23.8295 22.8937 23.8785 22.4399C23.9275 21.9862 23.9533 21.3313 23.8785 21.1534C23.6826 20.6816 22.7751 19.39 22.3342 19.2534C22.0867 19.1786 21.8521 19.2198 21.8521 19.2198L19.5292 22.1202Z" fill="#593329"/>
<path id="Vector_18" d="M20.2281 20.4031C19.746 20.9368 19.4985 21.7076 19.5243 22.115C19.5501 22.4991 21.378 22.3315 21.5945 22.2001C21.8111 22.0686 22.2829 21.4808 22.2984 21.2848C22.3138 21.0889 22.1643 20.4753 22.1385 20.0963C22.1127 19.7173 22.1024 19.2017 21.8936 19.2146C21.6848 19.2275 20.9139 19.6451 20.2281 20.4031Z" fill="#925849"/>
<path id="Vector_19" d="M26.4102 13.752C26.4102 13.752 26.8356 13.8138 27.359 14.1284C27.97 14.4945 28.6094 15.4277 28.5604 16.1883C28.5114 16.9488 27.8488 17.2917 27.0419 17.3046C26.2349 17.3175 25.446 17.2737 25.299 16.856C25.1521 16.4384 26.4102 13.752 26.4102 13.752Z" fill="#593329"/>
<path id="Vector_20" d="M25.7656 14.0071C25.6392 14.1825 25.3118 14.7187 25.201 15.4045C25.0901 16.0903 25.1649 16.874 25.4098 17.0107C25.6547 17.1447 27.0031 15.982 27.0753 15.8582C27.15 15.7345 26.6447 13.8602 26.4849 13.7751C26.325 13.69 25.9254 13.788 25.7656 14.0071Z" fill="#925849"/>
</g>
<defs>
<radialGradient id="paint0_radial_91_4831" cx="0" cy="0" r="1" gradientUnits="userSpaceOnUse" gradientTransform="translate(16.5422 14.8489) scale(13.7161)">
<stop offset="0.507" stop-color="#F29F58"/>
<stop offset="0.715" stop-color="#F09D56"/>
<stop offset="0.826" stop-color="#EB9550"/>
<stop offset="0.914" stop-color="#E18745"/>
<stop offset="0.99" stop-color="#D47436"/>
<stop offset="1" stop-color="#D27133"/>
</radialGradient>
</defs>
</svg>
